# xmcd CD database file
#
# Track frame offsets:
#	182
#	14042
#	29550
#	42265
#	56152
#	69732
#	88735
#	102635
#	117032
#	129040
#	145220
#
# Disc length: 2128 seconds
#
# Revision: 0
# Processed by: cddbd v1.4PL0 Copyright (c) Steve Scherf et al.
# Submitted via: Feurio! 1.63 - http://www.feurio.com
#
DISCID=9f084e0b
DTITLE=B.J. Thomas - Greatest Hits
DYEAR=1977
DGENRE=Oldies
TTITLE0=Raindrops Keep Falling
TTITLE1=Another Somebody Done Somebody Wrong Song
TTITLE2=Hooked On A Feeling
TTITLE3=Don't Worry Baby
TTITLE4=I Just Can't Help Believing
TTITLE5=Rock And Roll Lullaby
TTITLE6=The Eyes Of A New York Woman
TTITLE7=I'm So Lonesome I Could Cry
TTITLE8=Everybody Loves A Rain Song
TTITLE9=Still The Lovin' Is Fun
TTITLE10=Billy And Sue
EXTD=
EXTT0=
EXTT1=
EXTT2=
EXTT3=
EXTT4=
EXTT5=
EXTT6=
EXTT7=
EXTT8=
EXTT9=
EXTT10=
PLAYORDER=
